<svg width="128" height="128" viewBox="0 0 128 128" fill="none" xmlns="http://www.w3.org/2000/svg">
<g clip-path="url(#clip0_63_2)">
<rect width="128" height="128" rx="32" transform="matrix(1 0 0 -1 0 128)" fill="white"/>
<path d="M70.9282 65C67.849 70.3333 60.151 70.3333 57.0718 65L32.8231 23C29.7439 17.6666 33.5929 11 39.7513 11L88.2487 11C94.4071 11 98.2561 17.6666 95.1769 23L70.9282 65Z" fill="black"/>
<path d="M57.0718 64C60.151 58.6666 67.849 58.6666 70.9282 64L95.1769 106C98.2561 111.333 94.4071 118 88.2487 118L39.7513 118C33.5929 118 29.7439 111.333 32.8231 106L57.0718 64Z" fill="black"/>
<path d="M69.9641 60C68.4245 62.6666 64.5755 62.6666 63.0359 60L41.8183 23.25C40.2787 20.5833 42.2032 17.25 45.2824 17.25L87.7176 17.25C90.7968 17.25 92.7213 20.5833 91.1817 23.25L69.9641 60Z" fill="#F4F4F4"/>
<path d="M63.527 68.0777C65.0626 65.3904 68.9374 65.3904 70.473 68.0777L91.5803 105.015C93.1041 107.682 91.1786 111 88.1073 111H45.8927C42.8214 111 40.896 107.682 42.4198 105.015L63.527 68.0777Z" fill="#F4F4F4"/>
</g>
<rect x="2" y="-2" width="124" height="124" rx="30" transform="matrix(1 0 0 -1 0 124)" stroke="black" stroke-width="4"/>
<defs>
<clipPath id="clip0_63_2">
<rect width="128" height="128" rx="32" transform="matrix(1 0 0 -1 0 128)" fill="white"/>
</clipPath>
</defs>
</svg>
